<svg xmlns="http://www.w3.org/2000/svg" width="512" height="512" xml:space="preserve"><g transform="translate(512 512)"><radialGradient id="a" gradientUnits="userSpaceOnUse" cx="0" cy="0" r="0" fx="0" fy="0"><stop offset="0%" style="stop-color:#000082;stop-opacity:1"/><stop offset="50%" style="stop-color:#7e7e7e;stop-opacity:1"/><stop offset="100%" style="stop-color:#000;stop-opacity:1"/></radialGradient><path style="stroke:#fca370;stroke-width:0;stroke-dasharray:none;stroke-linecap:butt;stroke-dashoffset:0;stroke-linejoin:miter;stroke-miterlimit:4;fill:url(#a);fill-rule:nonzero;opacity:1" vector-effect="non-scaling-stroke" d="M0 0z"/></g><g transform="translate(256 256)"><radialGradient id="b" gradientUnits="userSpaceOnUse" cx="3.2" cy="2.4" r="717.193" fx="3.2" fy="2.4"><stop offset="0%" style="stop-color:#c70077;stop-opacity:1"/><stop offset="17.732%" style="stop-color:#c70077;stop-opacity:1"/><stop offset="100%" style="stop-color:#000082;stop-opacity:1"/></radialGradient><path style="stroke:#be7f55;stroke-width:0;stroke-dasharray:none;stroke-linecap:butt;stroke-dashoffset:0;stroke-linejoin:miter;stroke-miterlimit:4;fill:url(#b);fill-rule:nonzero;opacity:1" vector-effect="non-scaling-stroke" transform="translate(-256 -256)" d="M0 0h512v512H0z"/></g><g><path style="stroke:none;stroke-width:1;stroke-dasharray:none;stroke-linecap:butt;stroke-dashoffset:0;stroke-linejoin:miter;stroke-miterlimit:4;fill:#fff;fill-rule:nonzero;opacity:1" vector-effect="non-scaling-stroke" transform="matrix(4.27 0 0 4.27 84.997 92.861)" d="M53.2 49.9v.4c0 3.2-2.6 5.9-5.9 5.9H26.1c-.6 0-1.2.2-1.6.6l-11 9.2v-7.3c0-1.4-1.1-2.5-2.5-2.5-3.2 0-5.9-2.6-5.9-5.9V27.6c0-3.2 2.6-5.9 5.9-5.9h3.5V39c0 6 4.9 10.9 10.9 10.9h27.8z"/><path style="stroke:none;stroke-width:1;stroke-dasharray:none;stroke-linecap:butt;stroke-dashoffset:0;stroke-linejoin:miter;stroke-miterlimit:4;fill:#fff;fill-rule:nonzero;opacity:1" vector-effect="non-scaling-stroke" transform="matrix(4.27 0 0 4.27 84.997 92.858)" d="M69.1 10.5H25.3c-3.2 0-5.9 2.6-5.9 5.9V39c0 3.2 2.6 5.9 5.9 5.9h28.6c.6 0 1.2.2 1.6.6l11 9.2v-7.3c0-1.4 1.1-2.5 2.5-2.5 3.2 0 5.9-2.6 5.9-5.9V16.4c.1-3.3-2.6-5.9-5.8-5.9z"/></g></svg>
