<?xml version="1.0" encoding="UTF-8"?>
<svg xmlns="http://www.w3.org/2000/svg" xmlns:xlink="http://www.w3.org/1999/xlink" width="64px" height="64px" viewBox="0 0 64 64" version="1.1">
    <defs>
        <radialGradient id="radial0" gradientUnits="userSpaceOnUse" cx="3.2" cy="2.4" fx="3.2" fy="2.4" r="717.193" gradientTransform="matrix(0.125,0,0,0.125,0,0)">
            <stop offset="0" style="stop-color:rgb(78.039216%,0%,46.666667%);stop-opacity:1;"/>
            <stop offset="0.17732" style="stop-color:rgb(78.039216%,0%,46.666667%);stop-opacity:1;"/>
            <stop offset="1" style="stop-color:rgb(0%,0%,50.980392%);stop-opacity:1;"/>
        </radialGradient>
    </defs>
    <g id="surface1">
        <rect x="0" y="0" width="64" height="64" style="fill:url(#radial0);stroke:none;"/>
        <path style=" stroke:none;fill-rule:nonzero;fill:rgb(100%,100%,100%);fill-opacity:1;" d="M 39.019531 38.242188 L 39.019531 38.457031 C 39.019531 40.164062 37.632812 41.605469 35.871094 41.605469 L 24.554688 41.605469 C 24.234375 41.605469 23.914062 41.710938 23.703125 41.925781 L 17.832031 46.835938 L 17.832031 42.9375 C 17.832031 42.191406 17.242188 41.605469 16.496094 41.605469 C 14.789062 41.605469 13.347656 40.214844 13.347656 38.457031 L 13.347656 26.339844 C 13.347656 24.632812 14.734375 23.191406 16.496094 23.191406 L 18.363281 23.191406 L 18.363281 32.425781 C 18.363281 35.625 20.980469 38.242188 24.183594 38.242188 Z M 39.019531 38.242188 "/>
        <path style=" stroke:none;fill-rule:nonzero;fill:rgb(100%,100%,100%);fill-opacity:1;" d="M 47.507812 17.210938 L 24.128906 17.210938 C 22.421875 17.210938 20.980469 18.597656 20.980469 20.359375 L 20.980469 32.421875 C 20.980469 34.132812 22.367188 35.574219 24.128906 35.574219 L 39.394531 35.574219 C 39.714844 35.574219 40.035156 35.679688 40.246094 35.894531 L 46.117188 40.804688 L 46.117188 36.90625 C 46.117188 36.160156 46.707031 35.574219 47.453125 35.574219 C 49.160156 35.574219 50.601562 34.183594 50.601562 32.421875 L 50.601562 20.359375 C 50.65625 18.597656 49.214844 17.210938 47.507812 17.210938 Z M 47.507812 17.210938 "/>
    </g>
</svg>
